<svg width="552" height="331" viewBox="0 0 552 331" fill="none" xmlns="http://www.w3.org/2000/svg">
<path d="M114.5 23.2602V68.8138C114.5 71.2361 112.764 73.3101 110.379 73.7359L92.379 76.9502C89.3143 77.4974 86.5 75.1412 86.5 72.028V58.1758C86.5 54.9955 83.5701 52.6234 80.4595 53.2852L44.0059 61.0413C41.4599 61.583 38.9242 60.0807 38.1763 57.5875L34.2253 44.4175C33.7692 42.8972 34.062 41.2506 35.0144 39.9808L38.3974 35.4701C39.1092 34.5211 40.1352 33.856 41.2921 33.5938L108.395 18.3839C111.523 17.6748 114.5 20.0528 114.5 23.2602Z" stroke="black"/>
<path d="M59.1148 78.075L63.09 90.5687C63.8847 93.0663 62.6159 95.7536 60.1824 96.7271L42.643 103.743C40.7448 104.502 39.5 106.341 39.5 108.385V116.83C39.5 120.009 42.4265 122.38 45.5359 121.722L120.536 105.839C122.847 105.35 124.5 103.31 124.5 100.948V90C124.5 87.2386 122.261 85 119.5 85H89.5104C87.6584 85 85.958 83.9763 85.0915 82.3394L79.3323 71.4611C78.2562 69.4283 75.9321 68.392 73.7007 68.9498L62.6667 71.7083C59.8675 72.4081 58.2399 75.3255 59.1148 78.075Z" stroke="black"/>
<path d="M259.5 55L265.501 59.001C267.292 60.1948 268.118 62.4005 267.552 64.4768L264.682 75M259.5 55L250.022 51.8408C248.445 51.3151 246.71 51.6075 245.393 52.6211L235.089 60.5473C234.698 60.8474 234.355 61.2036 234.068 61.6042L226.506 72.1918C225.298 73.8821 225.262 76.143 226.414 77.8715L232.545 87.0682C233.718 88.8264 235.868 89.6579 237.918 89.1454L259.659 83.7102C261.414 83.2716 262.795 81.9198 263.27 80.1751L264.682 75M259.5 55L261.834 40.2202C262.217 37.7899 264.312 36 266.772 36H270.274C272.714 36 274.798 37.761 275.204 40.1667L285.514 101.167C286.03 104.218 283.678 107 280.584 107H272.939C270.407 107 268.274 105.107 267.974 102.592L264.682 75M143.5 36H164.558C166.87 36 168.88 37.585 169.42 39.8331L173.941 58.6711C174.294 60.1436 173.961 61.6969 173.036 62.8952L159.001 81.0572C158.054 82.2825 156.593 83 155.045 83H135.245C133.535 83 131.944 82.1266 131.026 80.6844L120.104 63.5206C119.116 61.9682 119.061 59.9987 119.96 58.3932L131.068 38.557C131.952 36.978 133.621 36 135.431 36H143.5ZM234.5 217L225.385 257.108C224.867 259.385 222.843 261 220.509 261H212.5C209.739 261 207.5 258.761 207.5 256V239.96C207.5 236.851 204.693 234.495 201.631 235.036L196.647 235.915C193.494 236.472 191.669 239.807 192.901 242.762L197.615 254.077C198.988 257.37 196.568 261 193 261H179.5C176.739 261 174.5 258.761 174.5 256V169C174.5 166.239 176.739 164 179.5 164H194.296C197.486 164 199.86 166.946 199.182 170.062L192.405 201.239C191.573 205.065 195.262 208.319 198.955 207.016L205.404 204.74C206.738 204.269 207.811 203.254 208.355 201.948L216.218 183.077C216.994 181.214 218.815 180 220.833 180H236.303C239.49 180 241.864 182.942 241.19 186.057L234.5 217ZM481.679 267.374L478.935 276.979C478.153 279.716 475.246 281.249 472.546 280.349L465.919 278.14C463.877 277.459 462.5 275.548 462.5 273.396V266C462.5 263.239 464.739 261 467.5 261H476.871C480.193 261 482.592 264.18 481.679 267.374ZM499.488 261.5L485.379 291.946C484.309 294.255 481.675 295.392 479.261 294.587L444.919 283.14C442.877 282.459 441.5 280.548 441.5 278.396V255.427C441.5 252.504 443.996 250.205 446.908 250.443L495.36 254.415C498.825 254.699 500.95 258.346 499.488 261.5ZM502.976 147.471L511.998 232.283C512.28 234.927 510.442 237.329 507.816 237.749L465.773 244.476C463.789 244.794 461.808 243.893 460.743 242.189L458.626 238.802C457.906 237.65 457.686 236.256 458.015 234.939L460.661 224.356C461.532 220.874 458.558 217.636 455.014 218.207L437.296 221.065C434.256 221.555 431.5 219.208 431.5 216.129V195.426C431.5 193.361 432.769 191.509 434.695 190.763L458.304 181.624C460.69 180.701 461.994 178.126 461.326 175.657L454.204 149.305C453.345 146.126 455.739 143 459.031 143H498.004C500.56 143 502.705 144.929 502.976 147.471ZM387.5 217H385.5C382.739 217 380.5 214.761 380.5 212V209C380.5 206.239 382.739 204 385.5 204H387.5C390.261 204 392.5 206.239 392.5 209V212C392.5 214.761 390.261 217 387.5 217ZM426.155 211.187L423.049 194.881C422.71 193.102 421.436 191.645 419.718 191.073L388.121 180.54C387.07 180.19 385.933 180.198 384.888 180.564L369.014 186.12C367.443 186.67 366.248 187.966 365.828 189.577L360.998 208.091C360.678 209.318 360.836 210.62 361.44 211.735L372.082 231.381C372.956 232.995 374.643 234 376.478 234H411.598C413.393 234 415.049 233.039 415.94 231.481L425.584 214.603C426.175 213.568 426.378 212.357 426.155 211.187ZM356.389 141.155L397.735 125.553C401.005 124.319 404.5 126.736 404.5 130.231V150.578C404.5 154.125 408.091 156.544 411.379 155.211L435.655 145.37C438.641 144.159 441.976 146.048 442.474 149.231L445.831 170.72C446.215 173.176 444.736 175.542 442.359 176.271L337.643 208.421C334.866 209.274 331.949 207.588 331.301 204.755L325.537 179.536C324.953 176.98 326.442 174.407 328.95 173.64L355.17 165.629C358.015 164.759 359.477 161.612 358.305 158.877L353.558 147.803C352.437 145.185 353.724 142.161 356.389 141.155ZM324.5 250V255.098C324.5 258.187 327.274 260.538 330.322 260.03L354.678 255.97C357.726 255.462 360.5 257.813 360.5 260.902V272.241C360.5 274.907 358.409 277.104 355.747 277.235L264.747 281.74C261.892 281.882 259.5 279.605 259.5 276.746V266C259.5 263.239 261.739 261 264.5 261H286.5C289.261 261 291.5 258.761 291.5 256V250C291.5 247.239 293.739 245 296.5 245H319.5C322.261 245 324.5 247.239 324.5 250ZM311.5 181.404V187C311.5 189.761 309.261 192 306.5 192H294C290.432 192 288.012 188.37 289.385 185.077L290.534 182.318C291.142 180.86 292.404 179.774 293.937 179.391L305.287 176.553C308.443 175.764 311.5 178.151 311.5 181.404ZM325.528 157.163L342.969 227.801C343.748 230.954 341.362 234 338.115 234H269.939C267.079 234 264.802 231.605 264.946 228.749L268.282 162.343C268.407 159.852 270.347 157.835 272.831 157.613L320.229 153.381C322.686 153.162 324.936 154.768 325.528 157.163ZM143.5 240V222.37C143.5 219.468 141.038 217.176 138.144 217.383L80.0462 221.532C76.7527 221.768 74.1395 218.802 74.7871 215.565L78.6961 196.019C79.1635 193.682 81.2156 192 83.599 192H133.305C135.731 192 137.807 190.258 138.229 187.869L142.577 163.23C143.078 160.394 141.085 157.722 138.224 157.394L57.4341 148.107C56.8168 148.036 56.1916 148.081 55.5907 148.239L42.325 151.73C39.6586 152.432 38.0634 155.16 38.7594 157.828L60.5249 241.262C61.0992 243.464 63.0876 245 65.363 245H138.5C141.261 245 143.5 242.761 143.5 240ZM250.523 72.1685L247.204 73.3399C244.907 74.1503 242.5 72.447 242.5 70.0121V70.0121C242.5 69.3507 242.686 68.7026 243.036 68.1417L244.902 65.157C246.324 62.8812 249.346 62.2305 251.579 63.7192V63.7192C254.843 65.895 254.222 70.863 250.523 72.1685ZM210.532 37.32L206.335 43.0432C203.913 46.3458 206.272 51 210.367 51H214.897C218.942 51 221.313 55.5534 218.993 58.8673V58.8673C218.057 60.2039 216.528 61 214.897 61H202.717C201.338 61 200.056 61.7105 199.325 62.88V62.88C197.66 65.5442 199.575 69 202.717 69H206.5C209.261 69 211.5 71.2386 211.5 74V78C211.5 80.7614 209.261 83 206.5 83H196.956C196.005 83 195.074 83.2712 194.272 83.7817L186.748 88.5697C185.343 89.4637 183.585 89.5996 182.059 88.9321L175.716 86.157C172.359 84.6882 171.67 80.2264 174.428 77.8133L183.3 70.0497C184.081 69.3668 184.63 68.4582 184.871 67.4497L194.11 28.814C194.834 25.7843 198.123 24.1475 200.977 25.3961L208.504 28.6893C210.324 29.4855 211.5 31.2836 211.5 33.2701V34.3631C211.5 35.4266 211.161 36.4624 210.532 37.32ZM150.723 64.8728L146.307 67.396C144.599 68.3722 142.477 68.2557 140.885 67.0985L137.467 64.6122C134.904 62.7482 134.699 59.0006 137.044 56.8688L140.514 53.7144C142.256 52.1306 144.868 51.9769 146.784 53.3455L151.148 56.4629C154.116 58.5826 153.889 63.0635 150.723 64.8728Z" stroke="black"/>
<path d="M150.334 100.5L158.119 94.1302C159.012 93.3993 160.131 93 161.285 93H163.376C164.116 93 164.847 93.1644 165.516 93.4813L180.64 100.645C182.387 101.473 183.5 103.232 183.5 105.164V111.374C183.5 112.431 183.165 113.46 182.544 114.315L176.998 121.941C176.057 123.235 174.554 124 172.954 124H153.5C150.739 124 148.5 121.761 148.5 119V104.369C148.5 102.87 149.173 101.449 150.334 100.5Z" stroke="black"/>
<path d="M130.5 22L128.5 42L142.5 35.617L130.5 22Z" fill="black"/>
<path d="M155 35.617L168.5 22V42L155 35.617Z" fill="black"/>
<path d="M130.5 22L128.5 42L142.5 35.617L130.5 22Z" stroke="black"/>
<path d="M155 35.617L168.5 22V42L155 35.617Z" stroke="black"/>
<ellipse cx="352.5" cy="68" rx="5" ry="4" fill="black"/>
<ellipse cx="358" cy="54" rx="5.5" ry="4" fill="black"/>
<ellipse cx="379.5" cy="57" rx="4" ry="6" fill="black"/>
<ellipse cx="368" cy="71.5" rx="7.5" ry="6.5" fill="black"/>
<ellipse cx="433" cy="71.5" rx="3.5" ry="4.5" fill="black"/>
<ellipse cx="421.5" cy="84.5" rx="4" ry="2.5" fill="black"/>
<circle cx="444" cy="78.5" r="3.5" fill="black"/>
<ellipse cx="437" cy="92.5" rx="7.5" ry="8.5" fill="black"/>
<path d="M74.5 9L42.7288 12.4534C34.2201 13.3783 27.243 19.6148 25.3731 27.9668L13.9831 78.842C13.662 80.2763 13.5 81.7416 13.5 83.2114V93.5835C13.5 96.4928 14.1347 99.367 15.3598 102.006L19.6536 111.254C23.6421 119.845 21.058 130.055 13.4631 135.714L9.05037 139.002C3.98465 142.776 1 148.722 1 155.039V208.914C1 211.61 1.54504 214.278 2.60238 216.758L23.0265 264.662C26.3148 272.375 34.0646 277.218 42.4381 276.792L115.99 273.059C122.599 272.723 128.71 276.562 131.278 282.66C133.564 288.088 138.691 291.784 144.563 292.236L222.233 298.21C228.612 298.701 234.279 302.469 237.199 308.163C240.437 314.478 247.018 318.368 254.113 318.161L357.502 315.146C360.783 315.05 363.991 314.148 366.841 312.519L377.345 306.517C384.639 302.349 393.929 304.814 398.197 312.051C400.597 316.121 404.738 318.86 409.423 319.477L489.861 330.061C494.475 330.668 499.157 329.647 503.1 327.173L516.152 318.983C520.245 316.415 523.27 312.451 524.667 307.826L550.514 222.265C551.167 220.104 551.449 217.848 551.349 215.593L548.202 144.805C547.791 135.542 541.067 127.777 531.958 126.045L490.85 118.229C483.277 116.789 478.737 108.974 481.237 101.683C482.06 99.2829 482.143 96.6916 481.476 94.2442L477.319 79.0015C476.776 77.0125 475.929 75.1193 474.808 73.389L462.041 53.6829C457.028 45.945 447.374 42.6369 438.669 45.6738L424.38 50.658C416.392 53.4448 407.564 49.9943 403.582 42.5287C402.864 41.1823 401.969 39.9376 400.922 38.8275L386.876 23.9387C381.222 17.9454 372.471 16.0329 364.832 19.1209L358.433 21.7081C355.519 22.8861 352.923 24.7343 350.857 27.1029L339.478 40.1474C335.68 44.5013 330.184 47 324.406 47H318.831C310.53 47 303.119 41.7994 300.295 33.9932C297.941 27.4831 292.343 22.6855 285.55 21.3543L222.5 9L183.397 1.37019C182.135 1.12397 180.853 1 179.567 1H128.515C127.506 1 126.499 1.07629 125.502 1.22823L74.5 9Z" stroke="black"/>
</svg>
